<svg width="147" height="37" viewBox="0 0 147 37" fill="none" xmlns="http://www.w3.org/2000/svg">
<g clip-path="url(#clip0_63_656)">
<g clip-path="url(#clip1_63_656)">
<path d="M9.33952 2.6928C9.30212 2.62065 9.27931 2.54185 9.27239 2.46088C9.26546 2.37992 9.27455 2.29839 9.29914 2.22094C9.32374 2.14349 9.36335 2.07165 9.41571 2.00952C9.46808 1.94738 9.53218 1.89617 9.60434 1.85882C11.8186 0.732831 14.2783 0.175598 16.7616 0.237354C19.2449 0.299111 21.6738 0.977916 23.8294 2.21257C23.9001 2.25323 23.962 2.30749 24.0117 2.37221C24.0613 2.43694 24.0976 2.51085 24.1186 2.58968C24.1395 2.66851 24.1446 2.75071 24.1336 2.83152C24.1226 2.91234 24.0957 2.99018 24.0544 3.06055L16.9334 15.2818C16.879 15.3754 16.801 15.4531 16.7072 15.507C16.6134 15.5609 16.507 15.5892 16.3988 15.589H16.383C16.2722 15.5861 16.1642 15.5535 16.0702 15.4947C15.9761 15.4359 15.8996 15.353 15.8484 15.2546L9.33952 2.6928ZM16.0168 18.8484V18.8471L9.5076 6.28535C9.432 6.13992 9.30194 6.0303 9.1458 5.98043C8.98967 5.93056 8.82015 5.94448 8.67424 6.01917C6.93947 6.90867 5.39745 8.13201 4.13667 9.61899C2.87589 11.106 1.92119 12.8273 1.32735 14.6842C0.733515 16.541 0.512238 18.4969 0.67622 20.4395C0.840202 22.3822 1.38621 24.2733 2.28292 26.0043C3.17962 27.7354 4.40937 29.2723 5.90157 30.5269C7.39377 31.7815 9.11904 32.729 10.9784 33.3151C12.8377 33.9013 14.7945 34.1144 16.7364 33.9424C18.6783 33.7703 20.5671 33.2164 22.2945 32.3125C22.4395 32.2366 22.5487 32.1063 22.5981 31.9501C22.6475 31.794 22.6331 31.6247 22.5582 31.4791L16.0168 18.8484ZM23.6468 30.7219L23.6964 30.821C23.7712 30.9671 23.9 31.0782 24.0556 31.1306C24.1194 31.1518 24.1867 31.1602 24.2537 31.1554C24.3517 31.1527 24.4484 31.1317 24.5386 31.0935C24.7641 30.9817 24.9833 30.8577 25.1951 30.7219C25.8251 30.3564 26.4256 29.9422 26.9911 29.4832H23.0027L23.6468 30.7219ZM22.3586 28.2446H28.3413C28.7259 27.8581 29.0819 27.4441 29.4065 27.006H21.7145L22.3586 28.2446ZM21.0828 25.7673H30.2859C30.5396 25.3696 30.7672 24.9559 30.9672 24.5287H20.4387L21.0828 25.7673ZM19.7946 23.29H31.5122C31.6765 22.8857 31.8172 22.4721 31.9333 22.0514H19.1505L19.7946 23.29ZM18.5064 20.8127H32.243C32.3173 20.404 32.3792 19.9952 32.4164 19.5741H17.8747L18.5064 20.8127ZM25.1456 5.15633C25.076 5.1131 24.9981 5.08521 24.9169 5.07453C24.8357 5.06385 24.7532 5.07062 24.6749 5.0944C24.5946 5.11272 24.5191 5.1475 24.453 5.19654C24.3869 5.24558 24.3317 5.30781 24.2909 5.37928L23.9565 5.94906H26.347C25.961 5.66352 25.5599 5.3989 25.1456 5.15633ZM27.8458 7.1877H23.2381L22.5196 8.42634H29.0225C28.656 7.98973 28.2631 7.57607 27.8458 7.1877ZM29.9515 9.66498H21.7888L21.0704 10.9036H30.7071C30.4836 10.4741 30.2311 10.0603 29.9515 9.66498ZM31.3016 12.1423H20.352L19.6336 13.3809H31.7847C31.6474 12.9592 31.4861 12.5456 31.3016 12.1423ZM32.1315 14.6195H18.9028L18.1844 15.8582H32.3545C32.3053 15.4412 32.2308 15.0275 32.1315 14.6195ZM32.4783 17.0968H17.466L17.1687 17.6047C17.115 17.6941 17.0857 17.796 17.0835 17.9003C17.0813 18.0046 17.1064 18.1076 17.1563 18.1992L17.2306 18.3355H32.5031C32.5155 18.2116 32.5155 18.0754 32.5155 17.9515C32.5155 17.6666 32.5031 17.3817 32.4783 17.0968Z" fill="white"/>
<path d="M9.05494 5.40696C8.8279 4.97673 8.29352 4.80993 7.87669 5.06072C4.57681 7.04608 2.11142 10.182 0.968011 13.8808C-0.262358 17.861 0.138769 22.1669 2.08315 25.8512C4.02753 29.5356 7.35588 32.2967 11.336 33.5271C15.0348 34.6705 19.015 34.4049 22.5162 32.801C22.9585 32.5985 23.1224 32.0632 22.8953 31.6329L15.9751 18.52L9.05494 5.40696Z" fill="white"/>
</g>
<path d="M54.6157 6.48689C56.3372 6.48689 57.8036 6.76318 59.015 7.31574C60.2264 7.86831 61.1508 8.66528 61.7884 9.70665C62.426 10.748 62.7448 12.0125 62.7448 13.5002C62.7448 14.9879 62.426 16.2524 61.7884 17.2938C61.1508 18.3352 60.2264 19.1321 59.015 19.6847C57.8036 20.2373 56.3372 20.5136 54.6157 20.5136H50.4396V27.5269H44.9564V6.48689H54.6157ZM53.755 16.4012C54.9026 16.4012 55.7633 16.1674 56.3372 15.6999C56.9322 15.2111 57.2298 14.4778 57.2298 13.5002C57.2298 12.5226 56.9322 11.8 56.3372 11.3325C55.7633 10.8437 54.9026 10.5993 53.755 10.5993H50.4396V16.4012H53.755ZM65.8679 27.5269V11.5875H70.6497L70.8729 15.0304C71.2767 13.8403 71.8717 12.9158 72.6581 12.257C73.4657 11.5981 74.4858 11.2687 75.7185 11.2687C76.1222 11.2687 76.4623 11.3006 76.7386 11.3643C77.0361 11.4281 77.2699 11.5131 77.4399 11.6194L76.898 16.0824C76.6854 15.9974 76.4092 15.9336 76.0691 15.8911C75.7503 15.8274 75.3572 15.7955 74.8896 15.7955C74.252 15.7955 73.657 15.9336 73.1044 16.2099C72.5518 16.4862 72.1055 16.9006 71.7655 17.4532C71.4467 17.9845 71.2873 18.6646 71.2873 19.4934V27.5269H65.8679ZM87.1574 27.8457C85.3935 27.8457 83.8633 27.5163 82.5669 26.8574C81.2918 26.1986 80.3035 25.2529 79.6022 24.0202C78.9008 22.7876 78.5502 21.2999 78.5502 19.5572C78.5502 17.8145 78.9008 16.3268 79.6022 15.0942C80.3035 13.8615 81.2811 12.9158 82.535 12.257C83.8102 11.5981 85.266 11.2687 86.9024 11.2687C88.5814 11.2687 90.0053 11.5981 91.1742 12.257C92.3643 12.8945 93.2675 13.7871 93.8839 14.9348C94.5002 16.0612 94.8084 17.3576 94.8084 18.824C94.8084 19.2065 94.7977 19.5891 94.7765 19.9716C94.7552 20.3542 94.7233 20.6729 94.6808 20.928H82.0568V18.027H92.2899L89.7078 19.0153C89.7078 17.7401 89.474 16.7625 89.0064 16.0824C88.5601 15.4023 87.8588 15.0623 86.9024 15.0623C86.2223 15.0623 85.6379 15.2217 85.1491 15.5405C84.6815 15.8593 84.3202 16.3587 84.0652 17.0388C83.8314 17.7188 83.7145 18.5902 83.7145 19.6528C83.7145 20.6942 83.8527 21.5443 84.129 22.2031C84.4052 22.8407 84.7984 23.3083 85.3085 23.6058C85.8185 23.8821 86.4349 24.0202 87.1574 24.0202C87.965 24.0202 88.6026 23.8608 89.0702 23.542C89.559 23.2233 89.9203 22.7769 90.1541 22.2031L94.4896 23.6377C94.192 24.5515 93.6713 25.3273 92.9275 25.9648C92.2049 26.5811 91.3336 27.0487 90.3134 27.3675C89.3146 27.6863 88.2626 27.8457 87.1574 27.8457ZM104.535 27.8457C102.941 27.8457 101.453 27.5906 100.072 27.0806C98.7114 26.5493 97.5851 25.7948 96.6924 24.8172L99.2427 21.8206C99.7741 22.5007 100.475 23.0745 101.347 23.542C102.239 23.9883 103.228 24.2115 104.311 24.2115C104.97 24.2115 105.512 24.1159 105.937 23.9246C106.362 23.7333 106.575 23.4358 106.575 23.032C106.575 22.7344 106.469 22.5007 106.256 22.3306C106.044 22.1394 105.619 21.98 104.981 21.8525L102.749 21.4062C100.752 21.0024 99.3278 20.4073 98.4777 19.6209C97.6488 18.8134 97.2344 17.7614 97.2344 16.465C97.2344 15.5936 97.5 14.7647 98.0314 13.9784C98.5627 13.1708 99.3809 12.5226 100.486 12.0338C101.591 11.5237 103.004 11.2687 104.726 11.2687C106.341 11.2687 107.765 11.5025 108.998 11.97C110.23 12.4376 111.208 13.1177 111.93 14.0103L109.348 16.9431C108.838 16.3056 108.179 15.8061 107.372 15.4448C106.564 15.0835 105.757 14.9029 104.949 14.9029C104.439 14.9029 104.003 14.956 103.642 15.0623C103.302 15.1473 103.047 15.2748 102.877 15.4448C102.707 15.6148 102.622 15.8274 102.622 16.0824C102.622 16.3587 102.749 16.6031 103.004 16.8156C103.281 17.0069 103.78 17.1769 104.503 17.3257L107.404 17.8995C109.04 18.197 110.22 18.739 110.942 19.5253C111.665 20.3117 112.026 21.2574 112.026 22.3625C112.026 23.4039 111.75 24.339 111.197 25.1679C110.645 25.9967 109.816 26.6555 108.711 27.1443C107.606 27.6119 106.214 27.8457 104.535 27.8457ZM121.501 6.51877V21.8525C121.501 22.6176 121.681 23.1701 122.043 23.5102C122.425 23.8289 122.946 23.9883 123.605 23.9883C124.115 23.9883 124.55 23.9352 124.912 23.8289C125.294 23.7014 125.634 23.5208 125.932 23.287L126.506 26.6343C125.974 27.0168 125.305 27.3144 124.497 27.5269C123.69 27.7394 122.861 27.8457 122.011 27.8457C120.799 27.8457 119.747 27.6757 118.855 27.3356C117.983 26.9956 117.303 26.4536 116.814 25.7098C116.347 24.966 116.102 23.9777 116.081 22.7451V8.01707L121.501 6.51877ZM126.251 11.5875V15.4448H113.34V11.5875H126.251ZM136.341 11.2687C138.02 11.2687 139.486 11.5981 140.74 12.257C142.015 12.8945 143.004 13.8403 143.705 15.0942C144.428 16.3268 144.789 17.8145 144.789 19.5572C144.789 21.2999 144.428 22.7982 143.705 24.0521C143.004 25.2847 142.015 26.2305 140.74 26.8893C139.486 27.5269 138.02 27.8457 136.341 27.8457C134.704 27.8457 133.249 27.5269 131.974 26.8893C130.698 26.2305 129.7 25.2847 128.977 24.0521C128.276 22.7982 127.925 21.2999 127.925 19.5572C127.925 17.8145 128.276 16.3268 128.977 15.0942C129.7 13.8403 130.698 12.8945 131.974 12.257C133.249 11.5981 134.704 11.2687 136.341 11.2687ZM136.341 15.126C135.725 15.126 135.193 15.2748 134.747 15.5723C134.301 15.8699 133.961 16.3481 133.727 17.0069C133.493 17.6657 133.376 18.5158 133.376 19.5572C133.376 20.5986 133.493 21.4487 133.727 22.1075C133.961 22.7451 134.301 23.2233 134.747 23.542C135.193 23.8396 135.725 23.9883 136.341 23.9883C136.978 23.9883 137.52 23.8396 137.967 23.542C138.413 23.2233 138.753 22.7451 138.987 22.1075C139.221 21.4487 139.338 20.5986 139.338 19.5572C139.338 18.5158 139.221 17.6657 138.987 17.0069C138.753 16.3481 138.413 15.8699 137.967 15.5723C137.52 15.2748 136.978 15.126 136.341 15.126Z" fill="white"/>
</g>
<defs>
<clipPath id="clip0_63_656">
<rect width="146.513" height="41.2903" fill="white" transform="translate(0.179626 -4.47311)"/>
</clipPath>
<clipPath id="clip1_63_656">
<rect width="32.745" height="34.8351" fill="white" transform="translate(-0.011549 -0.319336)"/>
</clipPath>
</defs>
</svg>
