<svg width="146" height="38" viewBox="0 0 146 38" fill="none" xmlns="http://www.w3.org/2000/svg">
<path d="M36.5324 30.45V4.3391H46.8861C48.651 4.3391 50.0956 4.69571 51.2198 5.40892C52.3561 6.11005 53.1962 7.01063 53.7402 8.11068C54.2963 9.21072 54.5743 10.347 54.5743 11.5196C54.5743 12.9581 54.2298 14.179 53.5408 15.1824C52.8638 16.1857 51.939 16.8627 50.7665 17.2132V16.3066C52.4105 16.6813 53.6556 17.461 54.5018 18.6457C55.3601 19.8304 55.7892 21.1782 55.7892 22.6893C55.7892 24.2366 55.493 25.5905 54.9007 26.751C54.3084 27.9115 53.4259 28.8181 52.2533 29.4709C51.0929 30.1236 49.6543 30.45 47.9378 30.45H36.5324ZM40.9567 26.3339H47.3938C48.1554 26.3339 48.8384 26.1828 49.4428 25.8806C50.0472 25.5663 50.5187 25.1311 50.8571 24.5751C51.2077 24.0069 51.383 23.336 51.383 22.5623C51.383 21.8612 51.2319 21.2326 50.9297 20.6766C50.6275 20.1205 50.1862 19.6793 49.606 19.3529C49.0257 19.0144 48.3307 18.8452 47.5207 18.8452H40.9567V26.3339ZM40.9567 14.7653H46.8317C47.4603 14.7653 48.0224 14.6444 48.518 14.4027C49.0137 14.1609 49.4065 13.8043 49.6966 13.3329C49.9868 12.8614 50.1318 12.2812 50.1318 11.5921C50.1318 10.6855 49.8417 9.92998 49.2615 9.32556C48.6812 8.72114 47.8713 8.41893 46.8317 8.41893H40.9567V14.7653ZM68.0598 30.994C66.1015 30.994 64.391 30.5528 62.9283 29.6703C61.4656 28.7879 60.3293 27.573 59.5194 26.0257C58.7216 24.4663 58.3227 22.6772 58.3227 20.6584C58.3227 18.6034 58.7337 16.8022 59.5557 15.2549C60.3777 13.7076 61.52 12.4988 62.9827 11.6284C64.4454 10.758 66.1378 10.3229 68.0598 10.3229C70.0303 10.3229 71.7468 10.7641 73.2095 11.6465C74.6722 12.529 75.8085 13.7499 76.6184 15.3093C77.4283 16.8566 77.8333 18.6397 77.8333 20.6584C77.8333 22.6893 77.4223 24.4844 76.6003 26.0438C75.7904 27.5911 74.6541 28.806 73.1914 29.6884C71.7287 30.5588 70.0182 30.994 68.0598 30.994ZM68.0598 26.896C69.8006 26.896 71.094 26.3158 71.9402 25.1553C72.7864 23.9948 73.2095 22.4959 73.2095 20.6584C73.2095 18.7605 72.7804 17.2495 71.9221 16.1253C71.0638 14.989 69.7764 14.4208 68.0598 14.4208C66.8873 14.4208 65.9202 14.6868 65.1586 15.2186C64.4092 15.7384 63.8531 16.4698 63.4904 17.4127C63.1278 18.3435 62.9465 19.4254 62.9465 20.6584C62.9465 22.5563 63.3756 24.0734 64.2339 25.2097C65.1042 26.3339 66.3796 26.896 68.0598 26.896ZM82.1911 30.45V3.79512H86.561V30.45H82.1911ZM99.844 30.994C98.0428 30.994 96.4713 30.5407 95.1295 29.634C93.7877 28.7274 92.7481 27.4944 92.0107 25.935C91.2733 24.3756 90.9046 22.6167 90.9046 20.6584C90.9046 18.6759 91.2733 16.911 92.0107 15.3637C92.7602 13.8043 93.8179 12.5773 95.1839 11.6828C96.5499 10.7762 98.1577 10.3229 100.007 10.3229C101.869 10.3229 103.428 10.7762 104.685 11.6828C105.955 12.5773 106.916 13.8043 107.568 15.3637C108.221 16.9231 108.548 18.688 108.548 20.6584C108.548 22.6047 108.221 24.3635 107.568 25.935C106.916 27.4944 105.943 28.7274 104.649 29.634C103.356 30.5407 101.754 30.994 99.844 30.994ZM100.515 27.0774C101.687 27.0774 102.63 26.8114 103.344 26.2795C104.069 25.7355 104.595 24.98 104.921 24.0129C105.26 23.0459 105.429 21.9277 105.429 20.6584C105.429 19.3771 105.26 18.2589 104.921 17.3039C104.595 16.3368 104.081 15.5873 103.38 15.0555C102.679 14.5115 101.772 14.2395 100.66 14.2395C99.4874 14.2395 98.5203 14.5296 97.7587 15.1099C96.9972 15.678 96.4351 16.4517 96.0724 17.4308C95.7098 18.3979 95.5284 19.4738 95.5284 20.6584C95.5284 21.8552 95.7037 22.9431 96.0543 23.9223C96.4169 24.8894 96.967 25.657 97.7043 26.2251C98.4417 26.7933 99.3786 27.0774 100.515 27.0774ZM105.429 30.45V16.7055H104.885V4.3391H109.291V30.45H105.429ZM123.024 30.994C121.066 30.994 119.355 30.5528 117.893 29.6703C116.43 28.7879 115.294 27.573 114.484 26.0257C113.686 24.4663 113.287 22.6772 113.287 20.6584C113.287 18.6034 113.698 16.8022 114.52 15.2549C115.342 13.7076 116.484 12.4988 117.947 11.6284C119.41 10.758 121.102 10.3229 123.024 10.3229C124.995 10.3229 126.711 10.7641 128.174 11.6465C129.637 12.529 130.773 13.7499 131.583 15.3093C132.393 16.8566 132.798 18.6397 132.798 20.6584C132.798 22.6893 132.387 24.4844 131.565 26.0438C130.755 27.5911 129.618 28.806 128.156 29.6884C126.693 30.5588 124.983 30.994 123.024 30.994ZM123.024 26.896C124.765 26.896 126.058 26.3158 126.905 25.1553C127.751 23.9948 128.174 22.4959 128.174 20.6584C128.174 18.7605 127.745 17.2495 126.886 16.1253C126.028 14.989 124.741 14.4208 123.024 14.4208C121.852 14.4208 120.885 14.6868 120.123 15.2186C119.374 15.7384 118.817 16.4698 118.455 17.4127C118.092 18.3435 117.911 19.4254 117.911 20.6584C117.911 22.5563 118.34 24.0734 119.198 25.2097C120.069 26.3339 121.344 26.896 123.024 26.896Z" fill="white"/>
<path d="M0.764648 16.45H15.0823C19.9656 16.45 23.9244 20.4088 23.9244 25.2921V25.2921C23.9244 30.1755 19.9656 34.1343 15.0823 34.1343H0.764648V16.45Z" fill="white"/>
<path d="M0.764648 0.976379H10.2442C13.9067 0.976379 16.8758 3.94544 16.8758 7.60796V7.60796C16.8758 11.2705 13.9067 14.2395 10.2442 14.2395H0.764648V0.976379Z" fill="white"/>
</svg>
