<svg width="112" height="37" viewBox="0 0 112 37" fill="none" xmlns="http://www.w3.org/2000/svg">
<g clip-path="url(#clip0_63_664)">
<g clip-path="url(#clip1_63_664)">
<path d="M9.82514 2.6928C9.78775 2.62065 9.76494 2.54185 9.75801 2.46088C9.75109 2.37992 9.76018 2.29839 9.78477 2.22094C9.80936 2.14349 9.84897 2.07165 9.90134 2.00952C9.95371 1.94738 10.0178 1.89617 10.09 1.85882C12.3042 0.732831 14.7639 0.175598 17.2472 0.237354C19.7305 0.299111 22.1595 0.977916 24.315 2.21257C24.3857 2.25323 24.4477 2.30749 24.4973 2.37221C24.5469 2.43694 24.5833 2.51085 24.6042 2.58968C24.6251 2.66851 24.6302 2.75071 24.6192 2.83152C24.6082 2.91234 24.5813 2.99018 24.5401 3.06055L17.419 15.2818C17.3647 15.3754 17.2866 15.4531 17.1928 15.507C17.099 15.5609 16.9926 15.5892 16.8844 15.589H16.8687C16.7578 15.5861 16.6498 15.5535 16.5558 15.4947C16.4618 15.4359 16.3852 15.353 16.3341 15.2546L9.82514 2.6928ZM16.5024 18.8484V18.8471L9.99323 6.28535C9.91763 6.13992 9.78756 6.0303 9.63143 5.98043C9.4753 5.93056 9.30577 5.94448 9.15987 6.01917C7.4251 6.90867 5.88307 8.13201 4.6223 9.61899C3.36152 11.106 2.40682 12.8273 1.81298 14.6842C1.21914 16.541 0.997864 18.4969 1.16185 20.4395C1.32583 22.3822 1.87184 24.2733 2.76855 26.0043C3.66525 27.7354 4.89499 29.2723 6.38719 30.5269C7.87939 31.7815 9.60467 32.729 11.464 33.3151C13.3233 33.9013 15.2801 34.1144 17.222 33.9424C19.1639 33.7703 21.0528 33.2164 22.7801 32.3125C22.9252 32.2366 23.0343 32.1063 23.0837 31.9501C23.1331 31.794 23.1188 31.6247 23.0438 31.4791L16.5024 18.8484ZM24.1324 30.7219L24.182 30.821C24.2568 30.9671 24.3857 31.0782 24.5412 31.1306C24.605 31.1518 24.6723 31.1602 24.7394 31.1554C24.8374 31.1527 24.934 31.1317 25.0243 31.0935C25.2497 30.9817 25.4689 30.8577 25.6807 30.7219C26.3107 30.3564 26.9112 29.9422 27.4768 29.4832H23.4883L24.1324 30.7219ZM22.8443 28.2446H28.8269C29.2115 27.8581 29.5676 27.4441 29.8921 27.006H22.2002L22.8443 28.2446ZM21.5685 25.7673H30.7716C31.0253 25.3696 31.2528 24.9559 31.4528 24.5287H20.9244L21.5685 25.7673ZM20.2803 23.29H31.9978C32.1622 22.8857 32.3028 22.4721 32.4189 22.0514H19.6362L20.2803 23.29ZM18.9921 20.8127H32.7286C32.8029 20.404 32.8649 19.9952 32.902 19.5741H18.3604L18.9921 20.8127ZM25.6312 5.15633C25.5617 5.1131 25.4837 5.08521 25.4025 5.07453C25.3214 5.06385 25.2389 5.07062 25.1605 5.0944C25.0803 5.11272 25.0047 5.1475 24.9386 5.19654C24.8725 5.24558 24.8173 5.30781 24.7765 5.37928L24.4421 5.94906H26.8327C26.4466 5.66352 26.0456 5.3989 25.6312 5.15633ZM28.3314 7.1877H23.7237L23.0053 8.42634H29.5081C29.1417 7.98973 28.7487 7.57607 28.3314 7.1877ZM30.4371 9.66498H22.2745L21.5561 10.9036H31.1927C30.9692 10.4741 30.7168 10.0603 30.4371 9.66498ZM31.7872 12.1423H20.8377L20.1192 13.3809H32.2703C32.133 12.9592 31.9717 12.5456 31.7872 12.1423ZM32.6171 14.6195H19.3884L18.67 15.8582H32.8401C32.7909 15.4412 32.7165 15.0275 32.6171 14.6195ZM32.9639 17.0968H17.9516L17.6543 17.6047C17.6007 17.6941 17.5713 17.796 17.5691 17.9003C17.5669 18.0046 17.5921 18.1076 17.642 18.1992L17.7163 18.3355H32.9887C33.0011 18.2116 33.0011 18.0754 33.0011 17.9515C33.0011 17.6666 32.9887 17.3817 32.9639 17.0968Z" fill="white"/>
<path d="M9.54053 5.40696C9.31349 4.97673 8.7791 4.80993 8.36227 5.06072C5.0624 7.04608 2.59701 10.182 1.4536 13.8808C0.223229 17.861 0.624356 22.1669 2.56873 25.8512C4.51311 29.5356 7.84147 32.2967 11.8216 33.5271C15.5204 34.6705 19.5006 34.4049 23.0018 32.801C23.4441 32.5985 23.608 32.0632 23.3809 31.6329L16.4607 18.52L9.54053 5.40696Z" fill="white"/>
</g>
<path d="M55.1013 6.48689C56.8227 6.48689 58.2892 6.76318 59.5006 7.31574C60.712 7.86831 61.6364 8.66528 62.274 9.70665C62.9116 10.748 63.2304 12.0125 63.2304 13.5002C63.2304 14.9879 62.9116 16.2524 62.274 17.2938C61.6364 18.3352 60.712 19.1321 59.5006 19.6847C58.2892 20.2373 56.8227 20.5136 55.1013 20.5136H50.9252V27.5269H45.442V6.48689H55.1013ZM54.2406 16.4012C55.3882 16.4012 56.2489 16.1674 56.8227 15.6999C57.4178 15.2111 57.7153 14.4778 57.7153 13.5002C57.7153 12.5226 57.4178 11.8 56.8227 11.3325C56.2489 10.8437 55.3882 10.5993 54.2406 10.5993H50.9252V16.4012H54.2406ZM66.3535 27.5269V11.5875H71.1353L71.3585 15.0304C71.7623 13.8403 72.3573 12.9158 73.1437 12.257C73.9513 11.5981 74.9714 11.2687 76.204 11.2687C76.6078 11.2687 76.9479 11.3006 77.2242 11.3643C77.5217 11.4281 77.7555 11.5131 77.9255 11.6194L77.3836 16.0824C77.171 15.9974 76.8947 15.9336 76.5547 15.8911C76.2359 15.8274 75.8427 15.7955 75.3752 15.7955C74.7376 15.7955 74.1425 15.9336 73.59 16.2099C73.0374 16.4862 72.5911 16.9006 72.2511 17.4532C71.9323 17.9845 71.7729 18.6646 71.7729 19.4934V27.5269H66.3535ZM87.643 27.8457C85.8791 27.8457 84.3489 27.5163 83.0525 26.8574C81.7773 26.1986 80.7891 25.2529 80.0878 24.0202C79.3864 22.7876 79.0358 21.2999 79.0358 19.5572C79.0358 17.8145 79.3864 16.3268 80.0878 15.0942C80.7891 13.8615 81.7667 12.9158 83.0206 12.257C84.2958 11.5981 85.7516 11.2687 87.388 11.2687C89.067 11.2687 90.4909 11.5981 91.6598 12.257C92.8499 12.8945 93.7531 13.7871 94.3695 14.9348C94.9858 16.0612 95.2939 17.3576 95.2939 18.824C95.2939 19.2065 95.2833 19.5891 95.2621 19.9716C95.2408 20.3542 95.2089 20.6729 95.1664 20.928H82.5424V18.027H92.7755L90.1933 19.0153C90.1933 17.7401 89.9596 16.7625 89.492 16.0824C89.0457 15.4023 88.3444 15.0623 87.388 15.0623C86.7079 15.0623 86.1235 15.2217 85.6347 15.5405C85.1671 15.8593 84.8058 16.3587 84.5508 17.0388C84.317 17.7188 84.2001 18.5902 84.2001 19.6528C84.2001 20.6942 84.3383 21.5443 84.6146 22.2031C84.8908 22.8407 85.284 23.3083 85.7941 23.6058C86.3041 23.8821 86.9205 24.0202 87.643 24.0202C88.4506 24.0202 89.0882 23.8608 89.5558 23.542C90.0446 23.2233 90.4059 22.7769 90.6396 22.2031L94.9752 23.6377C94.6776 24.5515 94.1569 25.3273 93.4131 25.9648C92.6905 26.5811 91.8192 27.0487 90.799 27.3675C89.8002 27.6863 88.7482 27.8457 87.643 27.8457ZM105.02 27.8457C103.426 27.8457 101.939 27.5906 100.557 27.0806C99.197 26.5493 98.0706 25.7948 97.178 24.8172L99.7283 21.8206C100.26 22.5007 100.961 23.0745 101.832 23.542C102.725 23.9883 103.713 24.2115 104.797 24.2115C105.456 24.2115 105.998 24.1159 106.423 23.9246C106.848 23.7333 107.06 23.4358 107.06 23.032C107.06 22.7344 106.954 22.5007 106.742 22.3306C106.529 22.1394 106.104 21.98 105.467 21.8525L103.235 21.4062C101.237 21.0024 99.8133 20.4073 98.9632 19.6209C98.1344 18.8134 97.72 17.7614 97.72 16.465C97.72 15.5936 97.9856 14.7647 98.5169 13.9784C99.0483 13.1708 99.8665 12.5226 100.972 12.0338C102.077 11.5237 103.49 11.2687 105.211 11.2687C106.827 11.2687 108.251 11.5025 109.483 11.97C110.716 12.4376 111.694 13.1177 112.416 14.0103L109.834 16.9431C109.324 16.3056 108.665 15.8061 107.857 15.4448C107.05 15.0835 106.242 14.9029 105.435 14.9029C104.925 14.9029 104.489 14.956 104.128 15.0623C103.788 15.1473 103.533 15.2748 103.363 15.4448C103.192 15.6148 103.107 15.8274 103.107 16.0824C103.107 16.3587 103.235 16.6031 103.49 16.8156C103.766 17.0069 104.266 17.1769 104.988 17.3257L107.889 17.8995C109.526 18.197 110.705 18.739 111.428 19.5253C112.15 20.3117 112.512 21.2574 112.512 22.3625C112.512 23.4039 112.235 24.339 111.683 25.1679C111.13 25.9967 110.301 26.6555 109.196 27.1443C108.091 27.6119 106.699 27.8457 105.02 27.8457ZM121.986 6.51877V21.8525C121.986 22.6176 122.167 23.1701 122.528 23.5102C122.911 23.8289 123.431 23.9883 124.09 23.9883C124.6 23.9883 125.036 23.9352 125.397 23.8289C125.78 23.7014 126.12 23.5208 126.417 23.287L126.991 26.6343C126.46 27.0168 125.79 27.3144 124.983 27.5269C124.175 27.7394 123.346 27.8457 122.496 27.8457C121.285 27.8457 120.233 27.6757 119.34 27.3356C118.469 26.9956 117.789 26.4536 117.3 25.7098C116.832 24.966 116.588 23.9777 116.567 22.7451V8.01707L121.986 6.51877ZM126.736 11.5875V15.4448H113.825V11.5875H126.736ZM136.827 11.2687C138.505 11.2687 139.972 11.5981 141.226 12.257C142.501 12.8945 143.489 13.8403 144.191 15.0942C144.913 16.3268 145.274 17.8145 145.274 19.5572C145.274 21.2999 144.913 22.7982 144.191 24.0521C143.489 25.2847 142.501 26.2305 141.226 26.8893C139.972 27.5269 138.505 27.8457 136.827 27.8457C135.19 27.8457 133.734 27.5269 132.459 26.8893C131.184 26.2305 130.185 25.2847 129.463 24.0521C128.761 22.7982 128.411 21.2999 128.411 19.5572C128.411 17.8145 128.761 16.3268 129.463 15.0942C130.185 13.8403 131.184 12.8945 132.459 12.257C133.734 11.5981 135.19 11.2687 136.827 11.2687ZM136.827 15.126C136.21 15.126 135.679 15.2748 135.233 15.5723C134.786 15.8699 134.446 16.3481 134.212 17.0069C133.979 17.6657 133.862 18.5158 133.862 19.5572C133.862 20.5986 133.979 21.4487 134.212 22.1075C134.446 22.7451 134.786 23.2233 135.233 23.542C135.679 23.8396 136.21 23.9883 136.827 23.9883C137.464 23.9883 138.006 23.8396 138.452 23.542C138.899 23.2233 139.239 22.7451 139.472 22.1075C139.706 21.4487 139.823 20.5986 139.823 19.5572C139.823 18.5158 139.706 17.6657 139.472 17.0069C139.239 16.3481 138.899 15.8699 138.452 15.5723C138.006 15.2748 137.464 15.126 136.827 15.126Z" fill="white"/>
</g>
<defs>
<clipPath id="clip0_63_664">
<rect width="146.513" height="41.2903" fill="white" transform="translate(0.665222 -4.47311)"/>
</clipPath>
<clipPath id="clip1_63_664">
<rect width="32.745" height="34.8351" fill="white" transform="translate(0.47406 -0.319336)"/>
</clipPath>
</defs>
</svg>
